<?xml version="1.0" encoding="UTF-8" standalone="no"?>
<!DOCTYPE svg PUBLIC "-//W3C//DTD SVG 1.1//EN" "http://www.w3.org/Graphics/SVG/1.1/DTD/svg11.dtd">
<svg width="100%" height="100%" viewBox="0 0 520 520" version="1.1" xmlns="http://www.w3.org/2000/svg" xmlns:xlink="http://www.w3.org/1999/xlink" xml:space="preserve" xmlns:serif="http://www.serif.com/" style="fill-rule:evenodd;clip-rule:evenodd;stroke-linejoin:round;stroke-miterlimit:2;">
    <g transform="matrix(0.936597,0,0,0.936597,-2.72252,-6.73238)">
        <circle cx="280.507" cy="284.789" r="256.247" style="fill:rgb(26,30,34);"/>
    </g>
    <g transform="matrix(8.5739,0,0,8.5739,-1570.16,-1508.28)">
        <g transform="matrix(50,0,0,50,183.383,221.237)">
            <path d="M0.99,0.061C0.97,0.061 0.954,0.051 0.942,0.032C0.929,0.013 0.924,-0.009 0.927,-0.035C0.93,-0.067 0.938,-0.105 0.951,-0.149C0.963,-0.192 0.978,-0.238 0.997,-0.286C1.015,-0.335 1.034,-0.382 1.055,-0.427C1.046,-0.415 1.036,-0.401 1.024,-0.384C1.011,-0.367 0.997,-0.347 0.982,-0.325L0.964,-0.299C0.949,-0.277 0.935,-0.257 0.922,-0.24C0.909,-0.223 0.898,-0.207 0.888,-0.194C0.887,-0.193 0.884,-0.189 0.879,-0.184C0.875,-0.178 0.869,-0.17 0.862,-0.161C0.855,-0.152 0.847,-0.142 0.839,-0.133C0.83,-0.123 0.822,-0.113 0.813,-0.104C0.773,-0.059 0.746,-0.037 0.732,-0.037C0.712,-0.036 0.697,-0.045 0.687,-0.064C0.677,-0.083 0.672,-0.108 0.672,-0.141C0.672,-0.154 0.673,-0.169 0.675,-0.185C0.68,-0.236 0.694,-0.301 0.717,-0.382L0.74,-0.464C0.743,-0.475 0.746,-0.486 0.747,-0.495C0.748,-0.504 0.749,-0.513 0.75,-0.521C0.75,-0.53 0.753,-0.536 0.758,-0.54C0.764,-0.543 0.771,-0.545 0.78,-0.545C0.789,-0.545 0.798,-0.543 0.806,-0.539C0.813,-0.535 0.817,-0.531 0.816,-0.526C0.814,-0.513 0.811,-0.5 0.808,-0.487C0.805,-0.474 0.801,-0.46 0.796,-0.445C0.795,-0.44 0.792,-0.433 0.789,-0.424C0.785,-0.415 0.78,-0.405 0.775,-0.394L0.763,-0.367C0.748,-0.334 0.737,-0.304 0.728,-0.275C0.719,-0.246 0.713,-0.217 0.71,-0.187C0.709,-0.184 0.709,-0.181 0.709,-0.177L0.709,-0.162C0.709,-0.142 0.713,-0.128 0.72,-0.119C0.727,-0.111 0.738,-0.107 0.753,-0.106C0.76,-0.106 0.769,-0.11 0.78,-0.117C0.791,-0.124 0.802,-0.133 0.814,-0.144C0.826,-0.155 0.838,-0.166 0.849,-0.178C0.86,-0.189 0.868,-0.199 0.875,-0.208C0.915,-0.259 0.952,-0.308 0.986,-0.356C1.019,-0.403 1.048,-0.448 1.071,-0.489C1.095,-0.53 1.112,-0.566 1.121,-0.597C1.124,-0.607 1.132,-0.612 1.145,-0.612C1.155,-0.612 1.164,-0.609 1.172,-0.602C1.18,-0.595 1.182,-0.588 1.178,-0.58L1.161,-0.547C1.143,-0.512 1.126,-0.478 1.11,-0.447C1.093,-0.415 1.079,-0.384 1.066,-0.355L1.065,-0.356C1.038,-0.293 1.016,-0.236 1,-0.184C0.985,-0.131 0.975,-0.084 0.97,-0.041C0.969,-0.022 0.971,-0.005 0.978,0.01C0.984,0.025 0.993,0.032 1.006,0.032C1.023,0.032 1.04,0.02 1.059,-0.004C1.066,-0.013 1.072,-0.016 1.077,-0.014C1.079,-0.012 1.08,-0.01 1.08,-0.009C1.08,-0.006 1.079,-0.003 1.076,-0C1.062,0.021 1.048,0.036 1.033,0.046C1.018,0.056 1.003,0.061 0.99,0.061ZM0.167,0.117C0.123,0.117 0.088,0.103 0.062,0.074C0.036,0.046 0.023,0.007 0.023,-0.044C0.023,-0.114 0.048,-0.195 0.099,-0.286C0.134,-0.349 0.172,-0.395 0.215,-0.426C0.257,-0.456 0.297,-0.471 0.336,-0.471C0.37,-0.471 0.398,-0.461 0.421,-0.44C0.443,-0.419 0.454,-0.393 0.454,-0.361C0.454,-0.337 0.447,-0.312 0.434,-0.286C0.42,-0.26 0.399,-0.234 0.371,-0.208C0.368,-0.205 0.364,-0.203 0.361,-0.203C0.358,-0.203 0.356,-0.205 0.356,-0.209C0.356,-0.213 0.359,-0.218 0.364,-0.223C0.384,-0.244 0.399,-0.265 0.409,-0.285C0.419,-0.307 0.424,-0.326 0.424,-0.345C0.424,-0.372 0.415,-0.394 0.398,-0.41C0.381,-0.428 0.359,-0.436 0.332,-0.436C0.3,-0.436 0.267,-0.423 0.232,-0.397C0.197,-0.37 0.164,-0.329 0.133,-0.274C0.084,-0.183 0.059,-0.105 0.059,-0.041C0.059,-0 0.069,0.031 0.089,0.054C0.108,0.077 0.135,0.088 0.17,0.088C0.201,0.088 0.236,0.079 0.275,0.06C0.314,0.041 0.355,0.013 0.398,-0.025C0.458,-0.078 0.513,-0.141 0.563,-0.214C0.588,-0.251 0.608,-0.279 0.621,-0.298C0.634,-0.317 0.642,-0.328 0.643,-0.33C0.654,-0.345 0.665,-0.361 0.677,-0.378C0.689,-0.395 0.702,-0.413 0.715,-0.433C0.717,-0.436 0.719,-0.436 0.721,-0.432C0.724,-0.427 0.725,-0.422 0.722,-0.419C0.707,-0.396 0.69,-0.369 0.671,-0.338C0.652,-0.306 0.63,-0.27 0.606,-0.231L0.588,-0.202L0.589,-0.202C0.536,-0.119 0.476,-0.05 0.41,0.005C0.366,0.042 0.323,0.07 0.281,0.089C0.24,0.108 0.202,0.117 0.167,0.117Z" style="fill:rgb(255,97,136);fill-rule:nonzero;"/>
        </g>
    </g>
</svg>
