<svg xmlns="http://www.w3.org/2000/svg" width="933.333" height="933.333" preserveAspectRatio="xMidYMid meet" version="1.0" viewBox="0 0 700 700"><metadata>Created by potrace 1.14, written by Peter Selinger 2001-2017</metadata><g fill="#000" stroke="none"><path d="M3269 6726 c-2 -2 -42 -7 -89 -11 -47 -4 -87 -9 -90 -10 -3 -2 -30 -6 -60 -9 -92 -10 -309 -56 -391 -82 -25 -8 -54 -16 -65 -18 -85 -18 -346 -121 -507 -201 -498 -249 -918 -612 -1229 -1065 -135 -197 -207 -329 -324 -595 -86 -195 -186 -562 -210 -765 -3 -30 -8 -58 -10 -61 -2 -3 -7 -50 -11 -105 -15 -188 -8 -638 12 -714 2 -8 7 -37 10 -65 3 -27 7 -57 9 -65 18 -92 17 -106 -9 -180 -24 -70 -51 -155 -59 -190 -2 -8 -14 -52 -25 -97 -12 -46 -24 -104 -27 -130 -3 -26 -7 -50 -9 -53 -9 -15 -19 -156 -19 -275 0 -123 6 -219 19 -275 4 -14 11 -45 17 -70 11 -52 15 -61 57 -154 43 -92 83 -148 162 -227 83 -82 217 -159 324 -186 131 -32 334 -35 479 -7 83 16 79 17 128 -28 25 -24 63 -56 84 -73 21 -16 42 -35 48 -40 29 -28 234 -170 331 -230 285 -177 692 -343 955 -391 14 -3 41 -9 60 -14 19 -5 52 -12 74 -16 21 -3 48 -8 60 -10 11 -2 41 -7 66 -10 25 -3 52 -7 60 -9 100 -26 680 -27 816 -1 12 2 45 7 75 11 30 3 61 8 69 10 8 2 31 7 50 10 244 41 577 153 833 281 238 118 446 254 647 422 87 74 244 225 313 303 27 30 58 65 71 79 12 14 37 45 56 70 19 24 40 50 45 56 6 7 18 22 27 35 9 13 51 69 93 124 41 55 75 105 75 111 0 6 26 57 58 115 140 250 235 488 307 764 19 72 37 144 40 160 21 116 46 283 52 355 15 168 6 680 -12 710 -2 3 -6 30 -9 60 -3 30 -8 66 -11 80 -39 198 -61 286 -107 429 l-30 93 67 132 c224 434 225 437 219 469 -20 118 -254 173 -318 75 -8 -12 -26 -59 -41 -103 -14 -43 -37 -103 -50 -131 -14 -29 -25 -59 -25 -66 0 -14 -21 18 -66 102 -153 288 -395 595 -656 835 -477 438 -1109 735 -1733 814 -44 6 -98 13 -120 17 -44 6 -550 15 -556 10z m-2776 -4407 c88 -228 222 -476 370 -684 39 -55 77 -107 84 -115 70 -87 143 -172 174 -205 l39 -40 -47 -7 c-71 -11 -229 -2 -297 17 -202 54 -378 251 -421 471 -28 149 -31 371 -5 504 5 30 12 66 15 80 4 21 11 51 21 93 1 4 2 15 3 25 3 21 4 18 64 -139z" transform="translate(0.000000,700.000000) scale(0.100000,-0.100000)"/></g></svg>