<?xml version="1.0" standalone="no"?>
<!DOCTYPE svg PUBLIC "-//W3C//DTD SVG 20010904//EN"
 "http://www.w3.org/TR/2001/REC-SVG-20010904/DTD/svg10.dtd">
<svg version="1.0" xmlns="http://www.w3.org/2000/svg"
 width="2400.000000pt" height="2400.000000pt" viewBox="0 0 2400.000000 2400.000000"
 preserveAspectRatio="xMidYMid meet">
<metadata>
Created by potrace 1.11, written by Peter Selinger 2001-2013
</metadata>
<g transform="translate(0.000000,2400.000000) scale(0.100000,-0.100000)"
fill="#000000" stroke="none">
<path d="M11445 23990 c-1497 -79 -2877 -399 -4215 -978 -2145 -928 -3975
-2468 -5263 -4427 -1660 -2526 -2304 -5595 -1801 -8580 490 -2908 2037 -5537
4344 -7381 1061 -849 2270 -1515 3560 -1963 1745 -606 3607 -799 5449 -566
3297 418 6290 2203 8231 4908 2055 2865 2746 6481 1894 9902 -788 3163 -2838
5877 -5664 7500 -1514 869 -3186 1396 -4920 1549 -96 9 -245 21 -330 27 -199
14 -1076 20 -1285 9z m-1579 -9294 c1171 -1190 2131 -2163 2134 -2163 3 1 971
975 2150 2164 l2145 2162 1363 1 1362 0 0 -4875 0 -4875 -1430 0 -1430 0 0
2822 0 2823 -1743 -1743 -1742 -1742 -675 0 -675 0 -1742 1742 -1743 1743 0
-2823 0 -2822 -1465 0 -1465 0 0 4875 0 4875 1413 0 1413 0 2130 -2164z"/>
</g>
</svg>
